<?xml version="1.0" standalone="no"?>
<!DOCTYPE svg PUBLIC "-//W3C//DTD SVG 20010904//EN"
 "http://www.w3.org/TR/2001/REC-SVG-20010904/DTD/svg10.dtd">
<svg version="1.0" xmlns="http://www.w3.org/2000/svg"
 width="512.000000pt" height="512.000000pt" viewBox="0 0 512.000000 512.000000"
 preserveAspectRatio="xMidYMid meet">

<g transform="translate(0.000000,512.000000) scale(0.100000,-0.100000)"
fill="#000000" stroke="none">
<path d="M2474 5105 c-211 -38 -376 -121 -527 -265 -129 -122 -232 -295 -278
-468 l-22 -81 -306 -3 c-281 -3 -308 -5 -334 -22 -15 -10 -35 -32 -43 -48 -10
-20 -91 -672 -255 -2046 -131 -1109 -239 -2034 -239 -2055 0 -29 8 -46 34 -75
l34 -37 349 -3 c253 -2 354 0 370 9 48 26 46 105 -3 128 -17 7 -122 11 -330
11 l-306 0 6 38 c3 20 110 912 236 1982 127 1070 232 1951 235 1958 3 9 66 12
269 12 l264 0 4 -136 c3 -129 4 -137 27 -155 28 -22 69 -25 97 -5 17 13 20 31
24 153 l5 138 853 3 852 2 0 -129 c0 -115 2 -131 21 -155 27 -34 77 -36 107
-3 20 21 22 34 22 155 l0 132 190 0 c144 0 192 -3 195 -12 2 -7 23 -168 45
-358 22 -190 43 -362 46 -384 8 -49 35 -76 77 -76 47 0 70 29 69 83 -2 102
-92 798 -106 825 -33 63 -48 67 -301 70 l-230 4 -18 76 c-23 96 -92 243 -154
330 -220 309 -615 473 -979 407z m385 -165 c203 -58 373 -181 491 -357 46 -69
100 -191 115 -260 l7 -33 -835 0 -835 0 15 57 c67 258 278 481 543 575 147 52
353 60 499 18z"/>
<path d="M2231 3464 c-12 -15 -21 -34 -21 -44 0 -25 35 -65 88 -102 l46 -32
-34 -8 c-308 -74 -568 -239 -741 -471 -72 -97 -170 -292 -199 -397 -50 -183
-61 -345 -35 -525 15 -111 67 -280 113 -372 105 -208 282 -398 481 -518 67
-40 265 -125 292 -125 9 0 65 -55 124 -122 120 -136 149 -157 194 -133 57 29
55 77 -4 143 -25 27 -45 52 -45 54 0 3 53 8 118 12 399 22 754 218 970 534 77
112 115 190 157 315 142 428 41 893 -265 1230 -65 70 -189 172 -275 224 -164
98 -413 173 -578 173 -38 0 -57 11 -172 95 -145 107 -176 117 -214 69z m539
-334 c493 -100 848 -510 877 -1010 18 -313 -101 -615 -330 -837 -135 -131
-278 -215 -458 -267 -91 -26 -261 -50 -319 -44 l-34 3 45 29 c72 47 89 66 89
102 0 37 -37 74 -74 74 -12 0 -79 -39 -150 -86 l-130 -87 -70 23 c-39 12 -110
42 -158 67 -303 155 -517 453 -573 794 -46 283 27 587 196 816 135 183 380
352 580 401 26 7 55 15 65 19 11 3 -1 -15 -28 -44 -53 -58 -65 -90 -47 -125
16 -31 28 -38 68 -38 30 0 46 12 144 115 l109 115 50 0 c27 0 94 -9 148 -20z"/>
<path d="M2520 2762 c-149 -156 -278 -372 -321 -537 -27 -104 -30 -281 -5
-375 48 -185 178 -370 350 -497 90 -66 117 -61 245 46 133 112 252 294 291
447 35 135 24 304 -29 456 -49 143 -176 338 -309 476 -55 57 -63 62 -103 62
-42 0 -48 -4 -119 -78z m216 -208 c35 -45 64 -85 64 -90 0 -10 -153 -213 -161
-214 -4 0 -43 48 -88 106 l-81 107 27 36 c14 20 51 67 81 104 64 79 55 82 158
-49z m-236 -377 c133 -175 143 -175 276 2 53 69 99 127 104 129 4 2 18 -23 30
-54 l21 -57 -23 -32 c-91 -126 -264 -354 -269 -355 -13 0 -289 378 -289 396 0
10 9 39 21 63 23 53 14 59 129 -92z m67 -524 c28 -36 40 -43 69 -43 42 0 42 0
188 193 66 86 121 155 123 153 8 -8 -29 -133 -58 -193 -37 -78 -121 -185 -193
-247 l-56 -47 -27 19 c-16 11 -58 51 -94 88 -100 106 -169 231 -184 340 l-8
49 103 -135 c57 -74 119 -154 137 -177z"/>
<path d="M4200 2905 l-24 -26 158 -1337 c87 -735 160 -1349 163 -1364 l6 -28
-1385 0 -1385 0 -27 -21 c-36 -28 -36 -80 0 -108 l27 -21 1424 2 1425 3 34 37
c24 27 34 47 34 70 0 18 -72 647 -161 1398 -130 1107 -164 1370 -178 1390 -26
37 -79 39 -111 5z"/>
</g>
</svg>
