<?xml version="1.0" standalone="no"?>
<!DOCTYPE svg PUBLIC "-//W3C//DTD SVG 20010904//EN"
 "http://www.w3.org/TR/2001/REC-SVG-20010904/DTD/svg10.dtd">
<svg version="1.0" xmlns="http://www.w3.org/2000/svg"
 width="512.000000pt" height="512.000000pt" viewBox="0 0 512.000000 512.000000"
 preserveAspectRatio="xMidYMid meet">

<g transform="translate(0.000000,512.000000) scale(0.100000,-0.100000)"
fill="#000000" stroke="none">
<path d="M2474 5105 c-211 -38 -376 -121 -527 -265 -129 -122 -232 -295 -278
-468 l-22 -81 -306 -3 c-281 -3 -308 -5 -334 -22 -15 -10 -35 -32 -43 -48 -10
-20 -91 -672 -255 -2046 -131 -1109 -239 -2034 -239 -2055 0 -29 8 -46 34 -75
l34 -37 349 -3 c377 -3 384 -2 402 50 12 34 -6 81 -34 92 -9 3 -156 6 -326 6
l-310 0 6 33 c3 17 109 910 235 1982 127 1073 233 1956 235 1963 3 9 66 12
269 12 l264 0 4 -134 c3 -152 14 -176 73 -176 64 0 69 13 75 167 l5 138 810 3
c446 2 829 0 853 -3 l42 -6 0 -123 c0 -110 2 -126 21 -150 27 -34 79 -36 109
-4 18 20 20 35 20 150 l0 128 195 0 c181 0 195 -1 195 -18 0 -10 20 -186 45
-392 49 -410 49 -413 115 -413 46 0 73 32 72 85 -2 102 -92 799 -106 826 -33
63 -48 67 -301 70 l-230 4 -18 76 c-23 96 -92 243 -154 330 -220 309 -615 473
-979 407z m385 -165 c203 -58 373 -181 491 -357 46 -69 100 -191 115 -260 l7
-33 -835 0 -835 0 15 57 c67 258 278 481 543 575 147 52 353 60 499 18z"/>
<path d="M2232 3467 c-12 -13 -22 -33 -22 -44 0 -27 37 -71 90 -108 l42 -29
-87 -23 c-704 -187 -1098 -908 -870 -1591 125 -372 416 -664 785 -787 77 -26
77 -26 180 -143 56 -64 113 -123 126 -130 47 -25 104 12 104 69 0 18 -15 44
-45 77 -25 27 -45 53 -45 56 0 3 33 6 73 6 377 0 762 196 995 505 57 76 148
253 180 350 75 226 81 485 15 719 -93 338 -342 634 -658 785 -145 69 -346 121
-469 121 -50 0 -57 4 -180 95 -141 105 -173 116 -214 72z m512 -332 c653 -114
1060 -793 849 -1415 -140 -412 -496 -695 -931 -741 -59 -6 -119 -9 -132 -7
-22 3 -20 5 21 32 72 47 89 66 89 102 0 37 -37 74 -74 74 -12 0 -79 -39 -150
-86 l-130 -87 -70 23 c-96 30 -215 93 -306 161 -405 304 -546 830 -350 1303
121 291 405 536 713 616 l67 18 -50 -55 c-66 -72 -66 -127 1 -151 41 -16 72 5
178 118 117 126 110 124 275 95z"/>
<path d="M2580 2823 c-68 -43 -239 -271 -309 -411 -170 -339 -114 -688 156
-959 93 -93 167 -143 212 -143 71 0 254 166 347 316 26 41 61 114 78 162 30
83 31 94 31 237 -1 137 -3 157 -29 235 -57 173 -184 376 -324 519 -53 54 -64
61 -98 61 -22 0 -50 -8 -64 -17z m186 -310 l35 -52 -78 -105 c-43 -58 -82
-104 -86 -103 -5 2 -44 49 -87 107 l-78 104 30 40 c16 22 52 69 81 103 l52 64
47 -53 c26 -29 64 -76 84 -105z m-275 -327 c52 -69 106 -130 120 -136 44 -19
71 2 170 134 52 69 97 125 101 125 3 1 15 -25 26 -57 l20 -59 -145 -192 c-80
-106 -148 -189 -153 -185 -4 5 -69 92 -144 192 -118 158 -137 187 -131 210 8
33 33 92 38 92 2 0 46 -56 98 -124z m121 -574 c18 -8 34 -9 50 -3 14 5 78 81
153 180 70 95 129 170 131 169 9 -10 -24 -116 -61 -193 -48 -100 -114 -185
-194 -251 l-53 -44 -38 30 c-110 87 -202 217 -246 346 -45 134 -32 127 104
-52 70 -94 139 -175 154 -182z"/>
<path d="M4201 2911 c-12 -12 -21 -34 -21 -50 0 -29 305 -2617 315 -2678 l6
-33 -1384 0 -1384 0 -27 -21 c-36 -28 -36 -80 0 -108 l27 -21 1424 2 1425 3
34 37 c24 27 34 47 34 70 0 18 -72 647 -161 1398 -130 1107 -164 1370 -178
1390 -24 34 -82 39 -110 11z"/>
</g>
</svg>
