<?xml version="1.0" standalone="no"?>
<!DOCTYPE svg PUBLIC "-//W3C//DTD SVG 20010904//EN"
 "http://www.w3.org/TR/2001/REC-SVG-20010904/DTD/svg10.dtd">
<svg version="1.0" xmlns="http://www.w3.org/2000/svg"
 width="512.000000pt" height="512.000000pt" viewBox="0 0 512.000000 512.000000"
 preserveAspectRatio="xMidYMid meet">

<g transform="translate(0.000000,512.000000) scale(0.100000,-0.100000)"
fill="#000000" stroke="none">
<path d="M825 5015 c-24 -23 -25 -29 -25 -158 l0 -134 -72 -8 c-166 -16 -308
-85 -433 -210 -91 -91 -143 -174 -183 -290 l-27 -80 -3 -723 -3 -722 25 -25
c25 -25 27 -25 201 -25 l175 0 0 -55 c0 -46 4 -60 25 -80 l24 -25 751 0 751 0
24 25 c21 20 25 34 25 80 l0 55 175 0 c174 0 176 0 201 25 l25 25 -3 722 -3
723 -27 80 c-40 116 -92 199 -183 290 -125 125 -267 194 -433 210 l-72 8 0
134 c0 129 -1 135 -25 158 l-24 25 -431 0 -431 0 -24 -25z m775 -215 l0 -80
-320 0 -320 0 0 80 0 80 320 0 320 0 0 -80z m-605 -292 c129 -445 202 -715
197 -725 -5 -8 -44 18 -119 80 l-112 92 0 115 c-1 82 -5 121 -15 135 -8 11
-42 34 -75 50 -51 24 -61 33 -57 50 3 11 15 73 27 138 l23 117 58 0 57 0 16
-52z m415 45 c0 -18 -125 -443 -130 -443 -5 0 -130 425 -130 443 0 4 59 7 130
7 72 0 130 -3 130 -7z m309 -110 c12 -65 24 -127 27 -138 4 -17 -6 -26 -57
-50 -33 -16 -67 -39 -75 -50 -10 -14 -14 -53 -14 -135 l0 -115 -123 -101 c-67
-56 -123 -101 -124 -100 -2 2 148 534 208 739 l20 67 57 0 58 0 23 -117z
m-1022 85 c-3 -13 -18 -85 -33 -161 -33 -168 -32 -173 66 -222 l70 -35 0 -109
c0 -89 3 -112 18 -129 9 -10 86 -77 170 -147 122 -101 152 -130 145 -143 -4
-10 -9 -225 -11 -479 l-3 -463 -239 0 -240 0 0 640 0 640 -80 0 -80 0 0 -560
0 -560 -120 0 -121 0 3 658 3 657 26 66 c37 95 70 148 134 212 64 64 141 112
224 138 72 23 74 23 68 -3z m1246 -1 c92 -33 150 -70 213 -134 63 -64 96 -118
133 -212 l26 -66 3 -657 3 -658 -121 0 -120 0 0 560 0 560 -80 0 -80 0 0 -640
0 -640 -320 0 -320 0 0 423 1 422 206 170 c113 94 221 184 239 201 l34 31 0
112 0 111 70 35 c98 49 99 54 66 222 -15 76 -30 148 -33 161 -7 28 1 28 80 -1z"/>
<path d="M1440 3360 l0 -80 80 0 80 0 0 80 0 80 -80 0 -80 0 0 -80z"/>
<path d="M1440 3040 l0 -80 80 0 80 0 0 80 0 80 -80 0 -80 0 0 -80z"/>
<path d="M3065 5015 l-25 -24 0 -272 0 -271 -45 -50 c-78 -87 -115 -193 -115
-332 0 -51 35 -259 115 -686 63 -337 115 -620 115 -629 0 -9 -29 -57 -66 -106
-231 -318 -413 -731 -498 -1132 -54 -257 -58 -312 -63 -865 l-5 -517 26 -26
25 -25 1231 0 1231 0 25 25 26 26 -5 517 c-5 553 -9 608 -63 865 -85 401 -259
798 -496 1127 -37 52 -68 102 -68 111 0 9 52 292 115 629 119 634 127 700 104
812 -16 73 -56 152 -106 209 l-43 47 0 271 0 272 -25 24 c-24 25 -26 25 -215
25 -189 0 -191 0 -215 -25 l-25 -24 0 -234 0 -233 -32 -16 c-60 -28 -136 -96
-170 -152 -18 -31 -35 -55 -38 -55 -3 0 -20 24 -38 55 -34 56 -110 124 -169
152 l-33 16 0 233 0 234 -25 24 c-24 25 -26 25 -215 25 -189 0 -191 0 -215
-25z m295 -294 l0 -158 -57 -6 c-32 -4 -68 -10 -80 -13 l-23 -6 0 171 0 171
80 0 80 0 0 -159z m960 -12 l0 -171 -22 6 c-13 3 -49 9 -80 13 l-58 6 0 158 0
159 80 0 80 0 0 -171z m-854 -337 c94 -48 130 -94 188 -242 40 -102 63 -130
105 -130 46 0 66 25 111 140 50 128 95 186 174 228 43 22 64 27 131 27 128 0
219 -54 272 -163 22 -46 28 -72 30 -146 3 -79 -8 -147 -80 -526 l-82 -435
-555 0 -555 0 -82 435 c-51 274 -82 461 -82 506 -2 160 68 268 204 317 65 23
164 18 221 -11z m814 -1429 c-1 -10 -6 -45 -13 -78 l-13 -60 -494 0 -494 0
-13 60 c-7 33 -12 68 -13 78 0 16 31 17 520 17 489 0 520 -1 520 -17z m55
-378 c215 -290 384 -660 469 -1026 63 -269 76 -429 76 -916 l0 -383 -1120 0
-1120 0 0 383 c0 514 18 697 95 995 86 328 254 683 450 947 l55 75 520 0 520
0 55 -75z"/>
<path d="M585 2295 l-25 -24 0 -1071 0 -1071 25 -24 24 -25 269 0 c245 0 272
2 292 18 27 22 28 26 71 445 18 180 36 327 39 327 3 0 18 -123 33 -273 50
-482 48 -469 73 -494 23 -23 25 -23 294 -23 l271 0 24 25 25 24 0 1071 0 1071
-25 24 -24 25 -671 0 -671 0 -24 -25z m1255 -1095 l0 -960 -165 0 c-91 0 -165
3 -165 8 0 4 -34 333 -76 732 -52 502 -80 732 -90 747 -8 13 -25 25 -39 29
-36 9 -73 -3 -89 -29 -9 -15 -39 -256 -90 -747 -42 -399 -76 -728 -76 -732 0
-5 -74 -8 -165 -8 l-165 0 0 960 0 960 560 0 560 0 0 -960z"/>
</g>
</svg>
