<?xml version="1.0" standalone="no"?>
<!DOCTYPE svg PUBLIC "-//W3C//DTD SVG 20010904//EN"
 "http://www.w3.org/TR/2001/REC-SVG-20010904/DTD/svg10.dtd">
<svg version="1.0" xmlns="http://www.w3.org/2000/svg"
 width="512.000000pt" height="512.000000pt" viewBox="0 0 512.000000 512.000000"
 preserveAspectRatio="xMidYMid meet">

<g transform="translate(0.000000,512.000000) scale(0.100000,-0.100000)"
fill="#000000" stroke="none">
<path d="M1406 4629 c-175 -26 -376 -105 -532 -209 -100 -67 -266 -232 -331
-330 -98 -146 -164 -301 -200 -470 -25 -118 -25 -381 0 -500 36 -169 100 -322
195 -464 67 -101 217 -253 327 -331 l95 -67 0 -682 c0 -657 1 -685 20 -741 11
-32 31 -78 45 -101 64 -109 205 -203 335 -224 42 -6 584 -10 1515 -10 1589 0
1522 -2 1645 60 131 66 228 205 250 355 13 94 13 2106 0 2200 -12 82 -61 191
-114 251 -45 52 -129 108 -204 137 -57 22 -63 22 -828 25 l-771 3 -6 52 c-10
82 -55 223 -102 324 -179 380 -530 646 -944 717 -101 17 -295 20 -395 5z m418
-333 c350 -97 606 -354 691 -691 45 -178 41 -352 -12 -520 -104 -329 -376
-576 -716 -651 -108 -24 -300 -22 -407 4 -177 43 -320 122 -449 246 -126 122
-207 256 -257 423 -37 126 -44 319 -16 453 77 372 364 661 738 744 91 20 343
16 428 -8z m2551 -1109 c26 -14 48 -37 63 -67 21 -42 22 -55 22 -297 l0 -252
-522 -3 -523 -3 -49 -24 c-66 -33 -122 -91 -155 -160 l-26 -56 0 -310 0 -310
26 -55 c31 -66 93 -130 157 -161 l47 -24 523 -3 522 -3 0 -252 c0 -242 -1
-255 -22 -297 -17 -33 -35 -51 -68 -68 l-44 -22 -1460 0 c-1456 0 -1460 0
-1502 21 -26 12 -53 36 -66 57 l-23 37 -3 598 c-2 480 0 597 10 597 7 0 48 -7
91 -15 104 -20 329 -19 443 0 391 69 737 329 918 693 44 88 90 224 106 312 7
36 13 71 16 78 3 9 160 12 741 12 l738 0 40 -23z m85 -1172 l0 -235 -480 0
-480 0 0 235 0 235 480 0 480 0 0 -235z"/>
<path d="M1525 4148 c-41 -22 -76 -63 -86 -101 -5 -21 -18 -41 -27 -44 -208
-70 -322 -251 -290 -457 15 -99 59 -165 149 -225 61 -41 143 -71 316 -117 56
-14 116 -35 132 -45 52 -32 37 -85 -32 -114 -73 -30 -184 -14 -303 45 -92 45
-120 49 -180 19 -86 -41 -114 -148 -61 -228 29 -44 144 -108 235 -131 48 -13
51 -16 61 -56 22 -85 113 -139 195 -114 50 15 103 69 112 115 5 29 12 36 51
49 111 38 205 124 244 224 18 44 23 79 23 152 1 88 -1 100 -32 163 -57 116
-158 175 -411 242 -90 24 -154 47 -169 60 -24 21 -25 24 -12 54 35 86 195 90
353 10 93 -47 146 -51 197 -16 48 32 72 69 77 118 10 96 -75 178 -242 230 -57
18 -75 28 -75 42 0 35 -33 88 -69 113 -39 26 -119 33 -156 12z"/>
</g>
</svg>
