<?xml version="1.0" standalone="no"?>
<!DOCTYPE svg PUBLIC "-//W3C//DTD SVG 20010904//EN"
 "http://www.w3.org/TR/2001/REC-SVG-20010904/DTD/svg10.dtd">
<svg version="1.0" xmlns="http://www.w3.org/2000/svg"
 width="512.000000pt" height="512.000000pt" viewBox="0 0 512.000000 512.000000"
 preserveAspectRatio="xMidYMid meet">

<g transform="translate(0.000000,512.000000) scale(0.100000,-0.100000)"
fill="#000000" stroke="none">
<path d="M2698 4283 c-47 -7 -86 -56 -93 -116 -8 -62 8 -139 37 -180 41 -57
82 -67 288 -67 l186 0 35 -43 c27 -32 34 -47 28 -62 -4 -11 -8 -57 -8 -103 -1
-56 -5 -84 -13 -87 -7 -3 -83 -18 -167 -34 -166 -31 -191 -44 -191 -98 0 -28
41 -73 67 -73 10 0 95 15 189 33 231 45 228 46 272 -94 120 -378 174 -677 175
-964 1 -270 -35 -422 -113 -473 -35 -23 -36 -23 -321 -20 l-285 3 -78 38
c-180 89 -288 276 -273 473 4 57 26 128 112 363 l106 292 -10 67 c-21 135
-122 277 -239 336 -110 55 -116 56 -756 56 l-589 0 -42 -25 c-27 -15 -49 -39
-60 -62 -34 -71 -13 -201 45 -281 21 -29 26 -44 18 -46 -7 -3 -44 -14 -83 -26
-342 -106 -631 -352 -794 -678 -98 -195 -141 -396 -141 -660 0 -191 12 -233
78 -274 33 -21 53 -24 191 -28 l153 -5 19 -73 c63 -248 243 -433 499 -513 107
-34 283 -34 390 0 255 79 437 265 499 511 l19 75 883 6 c486 4 900 10 919 13
l35 8 18 -81 c110 -494 700 -721 1110 -428 363 259 410 764 100 1088 -50 53
-53 58 -33 64 11 4 32 24 47 46 46 70 31 133 -62 257 -61 81 -149 152 -250
202 -102 49 -176 69 -295 77 l-95 6 -79 139 c-43 77 -89 146 -102 155 -37 24
-83 9 -101 -34 l-14 -35 81 -145 81 -145 -63 -72 c-139 -157 -203 -252 -284
-419 -65 -136 -100 -264 -116 -419 l-12 -116 -29 -6 c-16 -3 -334 -6 -707 -6
l-677 0 -11 138 c-7 82 -20 165 -33 207 -69 223 -227 405 -439 504 -108 50
-218 74 -346 75 -118 1 -144 -12 -144 -70 0 -56 30 -74 122 -74 117 0 220 -24
328 -77 126 -62 225 -159 288 -283 55 -109 70 -169 78 -307 l7 -113 -953 0
-953 0 6 82 c19 274 210 534 469 640 83 33 208 58 295 58 55 0 67 4 88 25 30
29 32 64 5 93 -30 32 -55 35 -179 23 -128 -13 -260 -53 -358 -108 -73 -40
-201 -140 -233 -180 -34 -43 -23 -3 26 97 157 324 432 548 785 642 82 22 99
22 751 25 l667 4 -25 -68 c-170 -448 -185 -526 -137 -718 28 -115 114 -247
214 -331 53 -44 168 -100 246 -119 52 -13 115 -16 345 -13 271 3 285 4 325 26
153 81 201 209 210 557 4 154 1 231 -12 335 -28 224 -95 521 -160 709 -14 41
-25 78 -25 83 0 4 38 8 84 8 l83 0 84 -146 c81 -142 101 -164 145 -164 23 0
64 46 64 72 0 13 -27 70 -60 128 l-59 105 97 5 c171 9 182 27 182 308 0 191
-1 200 -23 233 -27 40 -60 59 -105 59 -18 0 -168 -34 -334 -75 -165 -42 -303
-73 -306 -70 -3 3 0 16 6 30 7 14 12 34 12 45 0 20 -89 135 -176 230 l-52 55
-183 1 c-101 1 -196 0 -211 -3z m355 -171 c15 -15 27 -31 27 -35 0 -4 -72 -7
-159 -7 -169 0 -171 1 -171 51 0 18 9 19 138 19 l138 0 27 -28z m867 -342 l0
-150 -60 0 -60 0 0 135 0 134 43 11 c23 6 47 13 52 15 6 2 13 4 18 4 4 1 7
-66 7 -149z m-270 -35 l0 -115 -165 0 -165 0 0 75 c0 73 1 75 28 82 15 3 83
21 152 39 69 18 131 33 138 33 9 1 12 -28 12 -114z m-1356 -372 c63 -23 140
-92 172 -154 13 -27 24 -51 24 -54 0 -3 -285 -4 -633 -3 l-633 3 -42 27 c-48
32 -88 96 -98 156 l-7 42 584 0 c532 0 588 -1 633 -17z m2122 -828 c136 -32
263 -113 339 -216 25 -34 45 -65 45 -69 0 -4 -47 -10 -103 -13 -114 -6 -302
-45 -412 -84 -215 -78 -393 -211 -470 -353 -41 -77 -45 -59 -15 66 48 201 166
409 348 611 l65 73 71 0 c39 0 99 -7 132 -15z m258 -487 c84 -44 192 -155 233
-238 114 -234 74 -481 -106 -660 -88 -87 -148 -122 -257 -150 -315 -81 -632
116 -699 435 -21 98 -19 113 15 152 17 19 48 69 69 111 45 89 84 133 95 106 3
-9 -4 -39 -18 -68 -61 -128 -53 -287 19 -409 36 -63 125 -144 191 -174 293
-134 625 81 624 405 -1 198 -160 385 -359 422 -53 10 -71 22 -71 46 0 10 51
25 155 47 39 9 48 7 109 -25z m-311 -253 c60 -115 97 -197 97 -215 0 -56 -68
-91 -113 -57 -9 6 -62 97 -117 202 l-99 190 57 32 c31 18 62 33 67 33 6 0 54
-83 108 -185z m209 -10 c41 -28 89 -92 106 -144 20 -58 15 -150 -12 -206 -34
-73 -69 -110 -138 -144 -176 -88 -387 25 -414 222 -4 25 -3 58 1 74 6 26 9 24
47 -50 68 -131 122 -171 229 -172 89 0 151 36 192 115 41 78 35 142 -21 250
-23 44 -38 80 -34 80 4 0 24 -11 44 -25z m-3843 -396 c13 -33 41 -83 64 -111
168 -206 463 -223 650 -37 52 52 117 161 117 197 0 8 20 12 69 12 l69 0 -17
-57 c-64 -210 -218 -355 -424 -397 -94 -20 -152 -20 -241 -1 -115 24 -189 65
-277 154 -82 81 -140 181 -155 264 l-6 37 65 0 64 0 22 -61z m662 22 c-27 -52
-102 -116 -158 -135 -134 -46 -283 11 -351 133 l-23 41 276 0 275 0 -19 -39z"/>
</g>
</svg>
