<?xml version="1.0" standalone="no"?>
<!DOCTYPE svg PUBLIC "-//W3C//DTD SVG 20010904//EN"
 "http://www.w3.org/TR/2001/REC-SVG-20010904/DTD/svg10.dtd">
<svg version="1.0" xmlns="http://www.w3.org/2000/svg"
 width="512.000000pt" height="512.000000pt" viewBox="0 0 512.000000 512.000000"
 preserveAspectRatio="xMidYMid meet">

<g transform="translate(0.000000,512.000000) scale(0.100000,-0.100000)"
fill="#000000" stroke="none">
<path d="M915 5109 c-147 -21 -318 -87 -450 -174 -77 -51 -229 -203 -280 -280
-90 -138 -152 -301 -174 -459 -15 -108 -15 -3164 0 -3272 22 -158 84 -321 174
-459 51 -77 203 -229 280 -280 138 -90 301 -152 459 -174 108 -15 3164 -15
3272 0 158 22 321 84 459 174 77 51 229 203 280 280 90 138 152 301 174 459
15 108 15 3164 0 3272 -22 158 -84 321 -174 459 -51 77 -203 229 -280 280
-138 90 -301 152 -459 174 -95 13 -3190 13 -3281 0z m3214 -189 c133 -14 202
-34 316 -90 171 -85 300 -214 385 -385 56 -114 76 -183 90 -316 13 -127 13
-3011 0 -3138 -14 -128 -34 -200 -85 -307 -114 -237 -330 -407 -595 -470 -70
-17 -178 -18 -1605 -21 -1547 -4 -1663 -2 -1798 32 -226 58 -447 242 -552 459
-51 107 -71 179 -85 307 -13 127 -13 3011 0 3138 14 133 34 202 90 316 132
266 388 442 689 474 113 12 3036 13 3150 1z"/>
<path d="M660 3483 c-66 -25 -117 -107 -106 -172 8 -51 523 -1569 545 -1606
26 -45 86 -75 151 -75 64 0 105 21 142 72 15 20 94 239 204 565 98 293 182
529 185 525 4 -4 87 -245 184 -536 98 -290 188 -542 199 -560 30 -43 80 -66
147 -66 61 0 105 22 141 71 11 14 138 376 284 805 195 575 264 791 264 825 0
54 -28 102 -79 136 -40 27 -126 31 -170 8 -64 -33 -74 -57 -256 -608 -97 -293
-178 -539 -181 -547 -4 -8 -89 232 -190 534 -101 301 -190 559 -199 572 -23
36 -87 64 -145 64 -63 0 -108 -18 -141 -57 -17 -20 -79 -195 -204 -571 -98
-298 -182 -542 -185 -542 -3 0 -85 240 -183 533 -97 292 -186 546 -197 564
-26 43 -87 73 -147 72 -26 0 -55 -3 -63 -6z"/>
<path d="M3727 3480 c-496 -89 -836 -527 -786 -1013 39 -379 301 -686 686
-804 80 -24 104 -27 253 -27 142 -1 177 2 250 22 105 28 266 107 343 168 115
90 128 199 33 282 -68 60 -145 57 -234 -7 -161 -117 -356 -157 -536 -111 -216
55 -387 220 -441 426 -20 77 -19 225 1 295 81 274 340 454 628 436 100 -6 208
-38 278 -82 24 -14 68 -42 98 -61 48 -31 61 -35 107 -31 59 4 113 39 140 90
21 41 21 113 -1 155 -39 74 -251 200 -411 243 -89 24 -322 35 -408 19z"/>
</g>
</svg>
